<svg xmlns="http://www.w3.org/2000/svg" xmlns:xlink="http://www.w3.org/1999/xlink" width="500" zoomAndPan="magnify" viewBox="0 0 375 374.999991" height="500" preserveAspectRatio="xMidYMid meet" version="1.0"><path fill="#5374f7" d="M 165.609375 130.238281 L 210.375 207.761719 L 252.792969 134.328125 L 208.027344 56.804688 L 123.195312 56.804688 L 43.285156 195.226562 L 11.734375 249.914062 C 9.691406 253.398438 10.902344 257.902344 14.425781 259.910156 C 17.910156 261.957031 22.417969 260.746094 24.460938 257.222656 L 33.511719 241.542969 C 35.519531 238.058594 40.027344 236.847656 43.546875 238.855469 C 47.03125 240.863281 48.246094 245.40625 46.238281 248.890625 L 28.96875 278.808594 C 26.960938 282.292969 28.132812 286.800781 31.65625 288.84375 C 35.140625 290.851562 39.648438 289.640625 41.691406 286.15625 L 70.210938 236.734375 C 72.21875 233.25 76.722656 232.039062 80.246094 234.042969 C 83.730469 236.089844 84.941406 240.597656 82.933594 244.082031 L 78.085938 252.488281 L 46.503906 307.136719 C 44.496094 310.660156 45.707031 315.167969 49.191406 317.171875 C 52.714844 319.21875 57.21875 318.007812 59.226562 314.484375 L 90.8125 259.835938 Z M 209.390625 244.722656 L 164.625 167.199219 L 122.246094 240.632812 L 167.011719 318.160156 L 251.804688 318.160156 L 331.714844 179.734375 L 363.300781 125.085938 C 365.308594 121.566406 364.097656 117.058594 360.613281 115.050781 C 357.089844 113.003906 352.582031 114.21875 350.578125 117.738281 L 341.488281 133.417969 C 339.480469 136.941406 334.972656 138.152344 331.488281 136.109375 C 327.96875 134.101562 326.753906 129.59375 328.800781 126.070312 L 346.03125 96.191406 C 348.078125 92.667969 346.867188 88.160156 343.34375 86.15625 C 339.859375 84.109375 335.351562 85.320312 333.34375 88.84375 L 304.828125 138.230469 C 302.78125 141.710938 298.277344 142.925781 294.792969 140.917969 C 291.269531 138.910156 290.058594 134.367188 292.101562 130.882812 L 296.949219 122.472656 L 328.496094 67.824219 C 330.503906 64.300781 329.292969 59.796875 325.808594 57.789062 C 322.324219 55.78125 317.78125 56.957031 315.773438 60.476562 L 284.226562 115.125 Z M 347.320312 79.261719 C 344.023438 77.332031 342.890625 73.089844 344.78125 69.792969 C 346.714844 66.460938 350.957031 65.324219 354.289062 67.257812 C 357.582031 69.148438 358.71875 73.390625 356.824219 76.722656 C 354.894531 80.019531 350.652344 81.15625 347.320312 79.261719 Z M 363.492188 110.050781 C 360.160156 108.15625 359.023438 103.917969 360.953125 100.582031 C 362.847656 97.25 367.089844 96.113281 370.421875 98.046875 C 373.714844 99.976562 374.851562 104.21875 372.960938 107.515625 C 371.027344 110.847656 366.785156 111.984375 363.492188 110.050781 Z M 27.679688 295.699219 C 31.011719 297.632812 32.148438 301.875 30.21875 305.207031 C 28.285156 308.5 24.042969 309.636719 20.75 307.742188 C 17.417969 305.8125 16.28125 301.570312 18.210938 298.238281 C 20.105469 294.941406 24.347656 293.804688 27.679688 295.699219 Z M 11.546875 264.910156 C 14.839844 266.839844 15.976562 271.082031 14.085938 274.378906 C 12.152344 277.710938 7.910156 278.847656 4.617188 276.914062 C 1.285156 275.023438 0.148438 270.78125 2.078125 267.449219 C 3.972656 264.113281 8.214844 262.980469 11.546875 264.910156 Z M 11.546875 264.910156 " fill-opacity="1" fill-rule="evenodd"/></svg>